<?xml version="1.0" encoding="utf-8"?>
<!-- Generator: Adobe Illustrator 25.2.3, SVG Export Plug-In . SVG Version: 6.00 Build 0)  -->
<svg version="1.1" id="logo" xmlns="http://www.w3.org/2000/svg" xmlns:xlink="http://www.w3.org/1999/xlink" x="0px" y="0px"
	 viewBox="0 0 120 30" style="enable-background:new 0 0 120 30;" xml:space="preserve">
<style type="text/css">
	.st0{fill:#E74291;}
	.st1{fill:#E74291;stroke:#E74291;stroke-width:0.5;}
	.st2{fill:#E74291;stroke:#E74291;stroke-width:0.25;}
</style>
<g>
	<g>
		<path class="st0" d="M31.9,17.3c0.5,0,0.8-0.4,0.8-0.8V2c0-0.5-0.4-0.8-0.8-0.8H18.6c-0.5,0-0.8,0.4-0.8,0.8v10
			c0,0.5-0.4,0.8-0.8,0.8H5.7c-0.5,0-0.8-0.4-0.8-0.8V6.4c0-0.5,0.4-0.8,0.8-0.8h4.4c0.5,0,0.8,0.4,0.8,0.8v2c0,0.5,0.4,0.8,0.8,0.8
			h2.9c0.5,0,0.8-0.4,0.8-0.8V2c0-0.5-0.4-0.8-0.8-0.8H1.3C0.9,1.2,0.5,1.5,0.5,2v14.5c0,0.5,0.4,0.8,0.8,0.8h8.8
			c0.5,0,0.8,0.4,0.8,0.8v5.6c0,0.5-0.4,0.8-0.8,0.8H5.7c-0.5,0-0.8-0.4-0.8-0.8v-1.9c0-0.5-0.4-0.8-0.8-0.8H1.3
			c-0.5,0-0.8,0.4-0.8,0.8v6.4c0,0.5,0.4,0.8,0.8,0.8h13.4c0.5,0,0.8-0.4,0.8-0.8v-10c0-0.5,0.4-0.8,0.8-0.8h0.6
			c0.5,0,0.8,0.4,0.8,0.8v10c0,0.5,0.4,0.8,0.8,0.8h13.3c0.5,0,0.8-0.4,0.8-0.8v-6.4c0-0.5-0.4-0.8-0.8-0.8H29
			c-0.5,0-0.8,0.4-0.8,0.8v1.9c0,0.5-0.4,0.8-0.8,0.8H23c-0.5,0-0.8-0.4-0.8-0.8v-5.6c0-0.5,0.4-0.8,0.8-0.8H31.9z M22.1,6.4
			c0-0.5,0.4-0.8,0.8-0.8h4.4c0.5,0,0.8,0.4,0.8,0.8V12c0,0.5-0.4,0.8-0.8,0.8H23c-0.5,0-0.8-0.4-0.8-0.8V6.4H22.1z"/>
	</g>
</g>
<g>
	<g>
		<path class="st1" d="M102.6,3.7c2.6-0.2,4.8-0.8,6.8-1.8l-0.5-0.8c-2.1,1.1-4.5,1.7-7.3,1.8v8.2c0,1.7-0.2,3.3-0.5,4.9
			c-0.3,1.4-0.7,2.7-1.2,4l0.8,0.7c0.6-1.3,1.1-2.8,1.4-4.5c0.2-1.2,0.4-2.5,0.4-3.8h6.4v-6h-6.4L102.6,3.7L102.6,3.7z M107.9,7.4
			v4.1h-5.4V7.4H107.9z"/>
		<path class="st1" d="M119,1.8c-2.2,1-4.7,1.6-7.5,1.8v4.1h8v0.9h-3.4v12.1h-1v-12h-3.7v1.8c0,1.8-0.3,3.4-0.9,5.1
			s-1.5,3.2-2.6,4.5l-0.7-0.7c1-1.3,1.8-2.6,2.3-4c0.6-1.6,0.9-3.2,0.9-4.9V2.8c3.1-0.1,5.8-0.7,8-1.8L119,1.8z"/>
	</g>
	<g>
		<rect x="78.5" y="4.6" class="st1" width="8" height="0.8"/>
		<rect x="79.4" y="7.6" class="st1" width="6.3" height="0.8"/>
		<rect x="79.4" y="10.8" class="st1" width="6.3" height="0.8"/>
		<path class="st1" d="M83.6,3.8l-0.8,0.6c-0.5-1-1.1-1.9-1.9-2.8l0.7-0.5C82.4,1.9,83.1,2.8,83.6,3.8z"/>
		<path class="st1" d="M92.4,1.5c-0.1,0.3-0.3,0.7-0.4,1c0.9,1.5,2,2.8,3.1,4c1,1.1,2,2.1,3.1,2.8l-0.5,0.9
			c-1.1-0.8-2.1-1.8-3.1-2.9c-1.1-1.2-2.1-2.5-3-3.9c-0.5,1-1.1,1.9-1.8,2.8C88.5,7.6,87.2,9,85.6,10l-0.5-0.6
			c1.5-1.2,2.9-2.5,4-3.8c1.1-1.4,1.9-2.9,2.5-4.4L92.4,1.5z"/>
		<path class="st1" d="M97.1,13.4c-1,1.9-2.3,3.5-4,4.7c-1.7,1.2-3.9,2.1-6.4,2.8L86.3,20c2.5-0.6,4.5-1.5,6.2-2.6
			c1.6-1.1,2.8-2.6,3.8-4.4L97.1,13.4z"/>
		<path class="st1" d="M94.7,10.3c-0.9,1.6-1.9,2.9-3.1,3.9c-1.1,0.9-2.5,1.6-4.4,2.4l-0.5-0.7c1.8-0.7,3.3-1.5,4.3-2.3
			c1.1-0.9,2.1-2.1,2.9-3.6L94.7,10.3z"/>
		<path class="st1" d="M92.5,7.8c-0.5,0.8-1.2,1.7-2.1,2.5c-1,0.9-2,1.6-2.9,2.2L87,11.8c0.9-0.6,1.8-1.3,2.8-2.2
			c0.9-0.8,1.6-1.6,2.1-2.4L92.5,7.8z"/>
		<g>
			<polygon class="st1" points="79.9,13.9 79.9,20.6 80.8,20.6 80.8,19.4 83.4,19.4 83.4,19.3 83.4,19.1 83.4,18.6 83.4,18.6 
				80.8,18.6 80.8,14.7 84.5,14.7 84.5,18.3 84.5,18.4 84.5,18.5 84.5,18.6 84.5,19.2 84.5,19.3 84.5,19.4 84.5,19.5 84.5,20.7 
				85.5,20.7 85.5,13.9 			"/>
		</g>
	</g>
	<g>
		<path class="st1" d="M58.9,4.5h15.9v3h1V3.6h-8.3c-0.4-0.9-1-1.8-1.9-2.6l-0.7,0.6c0.6,0.6,1.2,1.3,1.5,2h-8.5v3.9h1V4.5z"/>
		<path class="st1" d="M72.3,19V6.6H61.5V19H57v0.9h19.8V19H72.3z M71.3,10.4L71.3,10.4v0.9l0,0v3.3l0,0v0.9l0,0V19h-8.9v-3.4h7.8
			v-0.9h-7.8v-3.3h7.8v-0.9h-7.8v-3h8.9V10.4z"/>
	</g>
	<g>
		<path class="st1" d="M53.5,2.7h-6.3V10h6.3V2.7z M52.6,9.2h-4.4V3.5h4.4V9.2z"/>
		<path class="st1" d="M45.9,16.6h7.4v-0.8h-7.4v-2.3c2.8-0.2,5.4-0.5,7.7-0.9l-0.4-0.8C48,12.6,42.8,13,37.6,13l0.3,0.8
			c2.5,0,4.9-0.1,7.1-0.3v2.2h-7.4v0.8H45v2.4h-9.4v0.8h19.6v-0.8h-9.4v-2.3H45.9z"/>
		<path class="st1" d="M35.9,2.1V3h2v7.9c-0.7,0.1-1.5,0.2-2.2,0.3l0.1,0.9c2.5-0.3,4.9-0.7,7.1-1.2V10c-1.2,0.3-2.6,0.5-4.1,0.7
			V8.3H44v1.5l0,0v0.9l0,0V12h0.9V2.9h1.5V2.1H35.9z M44,7.4h-5.2V5.5H44V7.4z M44,4.7h-5.2V2.9H44V4.7z"/>
	</g>
</g>
<g>
	<g>
		<polygon class="st2" points="59.3,23.4 61.3,23.4 61.3,28.4 62.2,28.4 62.2,23.4 64.2,23.4 64.2,22.8 59.3,22.8 		"/>
		<path class="st2" d="M56.8,25.1c0,0.9,0,1.6,0.1,2.3l0,0c-0.3-0.6-0.7-1.2-1.2-1.8l-2.1-2.9h-0.9v5.7h0.8V26c0-0.9,0-1.6-0.1-2.3
			l0,0c0.3,0.6,0.8,1.3,1.2,1.9l2.1,2.9h0.9v-5.7h-0.8V25.1z"/>
		<rect x="49.4" y="22.8" class="st2" width="0.9" height="5.7"/>
		<path class="st2" d="M38.6,25.2c-0.9-0.3-1.3-0.6-1.3-1.1c0-0.4,0.3-0.8,1.3-0.8c0.6,0,1,0.2,1.3,0.3l0.2-0.6
			c-0.3-0.1-0.8-0.3-1.5-0.3c-1.3,0-2.2,0.7-2.2,1.5s0.7,1.3,1.8,1.6c0.9,0.3,1.3,0.6,1.3,1.1c0,0.6-0.5,1-1.4,1
			c-0.6,0-1.2-0.2-1.5-0.4l-0.2,0.6c0.4,0.2,1.1,0.4,1.7,0.4c1.6,0,2.3-0.8,2.3-1.6C40.3,26.1,39.7,25.6,38.6,25.2z"/>
		<path class="st2" d="M46.5,28.4h0.9l-2.3-5.7h-1l-2.3,5.7h0.9l0.7-1.6h1.7l-0.2-0.7h-1.3l0.7-1.6c0.1-0.3,0.2-0.7,0.3-1l0,0
			c0.1,0.3,0.2,0.7,0.3,1"/>
	</g>
	<g>
		<path class="st2" d="M116.2,27.9c-1.6,0-2.6-0.9-2.6-2.3c0-1.5,1-2.3,2.6-2.3c0.6,0,1,0.1,1.3,0.2l0.2-0.6
			c-0.2-0.1-0.8-0.3-1.6-0.3c-2.1,0-3.5,1.2-3.5,3c0,1.9,1.4,2.9,3.3,2.9c0.8,0,1.4-0.1,1.8-0.3l-0.2-0.6
			C117.3,27.8,116.8,27.9,116.2,27.9z"/>
		<path class="st2" d="M106.7,25.1c0,0.9,0,1.6,0.1,2.3l0,0c-0.3-0.6-0.7-1.2-1.2-1.8l-2.1-2.9h-0.9v5.7h0.8V26c0-0.9,0-1.6-0.1-2.3
			l0,0c0.3,0.6,0.8,1.3,1.2,1.9l2.1,2.9h0.9v-5.7h-0.8V25.1z"/>
		<rect x="99.2" y="22.8" class="st2" width="0.9" height="5.7"/>
		<rect x="109.9" y="22.8" class="st2" width="0.9" height="5.7"/>
		<path class="st2" d="M90.2,23.3c0.6,0,1,0.1,1.3,0.2l0.2-0.6c-0.2-0.1-0.8-0.3-1.6-0.3c-2.1,0-3.5,1.2-3.5,3
			c0,1.9,1.4,2.9,3.3,2.9c0.8,0,1.4-0.1,1.8-0.3l-0.2-0.6c-0.3,0.1-0.9,0.2-1.4,0.2c-1.6,0-2.6-0.9-2.6-2.3
			C87.6,24.1,88.6,23.3,90.2,23.3z"/>
		<polygon class="st2" points="94.5,22.8 93.7,22.8 93.7,28.4 97.4,28.4 97.4,27.8 94.5,27.8 		"/>
	</g>
	<g>
		<polygon class="st2" points="68.8,28.4 72.5,28.4 72.5,27.8 69.7,27.8 69.7,25.8 71.8,25.8 71.8,25.2 69.7,25.2 69.7,23.4 
			72.5,23.4 72.5,22.8 68.8,22.8 		"/>
		<rect x="74.6" y="22.8" class="st2" width="0.9" height="5.7"/>
		<path class="st2" d="M81.7,26.9c-0.2-0.6-0.5-1-1-1.1l0,0c0.7-0.3,1-0.7,1-1.5c0-0.4-0.1-0.8-0.4-1.1c-0.4-0.3-0.9-0.5-1.8-0.5
			c-0.6,0-1.2,0-1.7,0.1v5.6h0.9v-2.2h0.8c0.8,0,1.1,0.1,1.3,0.9c0.2,0.7,0.3,1.2,0.4,1.4h0.9C82,28.2,81.9,27.7,81.7,26.9z
			 M79.6,25.4h-0.9v-2c0.1,0,0.4-0.1,0.9-0.1c0.9,0,1.5,0.3,1.5,1.1C81,25,80.3,25.4,79.6,25.4z"/>
	</g>
</g>
</svg>
